<svg width="100" height="100" viewBox="0 0 100 100" xmlns="http://www.w3.org/2000/svg">
  <!-- Strawberry body -->
  <ellipse cx="50" cy="55" rx="25" ry="30" fill="#FF6B6B"/>

  <!-- Strawberry seeds -->
  <circle cx="40" cy="40" r="1.5" fill="#FFF"/>
  <circle cx="45" cy="35" r="1.5" fill="#FFF"/>
  <circle cx="50" cy="32" r="1.5" fill="#FFF"/>
  <circle cx="55" cy="35" r="1.5" fill="#FFF"/>
  <circle cx="60" cy="40" r="1.5" fill="#FFF"/>
  <circle cx="42" cy="50" r="1.5" fill="#FFF"/>
  <circle cx="48" cy="48" r="1.5" fill="#FFF"/>
  <circle cx="52" cy="48" r="1.5" fill="#FFF"/>
  <circle cx="58" cy="50" r="1.5" fill="#FFF"/>
  <circle cx="45" cy="60" r="1.5" fill="#FFF"/>
  <circle cx="50" cy="58" r="1.5" fill="#FFF"/>
  <circle cx="55" cy="60" r="1.5" fill="#FFF"/>

  <!-- Strawberry leaves -->
  <path d="M35 25 Q40 15 45 25 Q50 15 55 25 Q60 15 65 25" stroke="#4CAF50" stroke-width="3" fill="none"/>
  <path d="M40 20 Q45 10 50 20 Q55 10 60 20" stroke="#66BB6A" stroke-width="2" fill="none"/>

  <!-- Strawberry stem -->
  <rect x="48" y="15" width="4" height="15" fill="#4CAF50" rx="2"/>
</svg>
